<svg width="24" height="24" viewBox="0 0 24 24" fill="none" xmlns="http://www.w3.org/2000/svg">
<path d="M11.9062 14.625C12.6024 14.625 13.2701 14.3484 13.7624 13.8561C14.2547 13.3639 14.5312 12.6962 14.5312 12C14.5312 11.9231 14.5277 11.8469 14.5212 11.7717L11.678 14.6149C11.7532 14.6215 11.8291 14.625 11.9062 14.625ZM20.595 3.88031L19.5937 2.87999C19.5586 2.84486 19.5109 2.82512 19.4612 2.82512C19.4115 2.82512 19.3638 2.84486 19.3287 2.87999L16.7665 5.44288C15.353 4.72054 13.7642 4.35937 12 4.35937C7.4953 4.35937 4.13436 6.70546 1.91717 11.3976C1.82805 11.5864 1.78183 11.7925 1.78183 12.0012C1.78183 12.2099 1.82805 12.416 1.91717 12.6047C2.80311 14.4708 3.8699 15.9665 5.11756 17.0918L2.63811 19.5703C2.60297 19.6055 2.58323 19.6531 2.58323 19.7028C2.58323 19.7526 2.60297 19.8002 2.63811 19.8354L3.63865 20.8359C3.67381 20.8711 3.72149 20.8908 3.77119 20.8908C3.8209 20.8908 3.86857 20.8711 3.90373 20.8359L20.595 4.14562C20.6124 4.1282 20.6262 4.10753 20.6357 4.08476C20.6451 4.062 20.65 4.0376 20.65 4.01296C20.65 3.98832 20.6451 3.96392 20.6357 3.94116C20.6262 3.9184 20.6124 3.89772 20.595 3.88031ZM7.78123 12C7.78117 11.2875 7.96565 10.5872 8.3167 9.96715C8.66776 9.34716 9.17342 8.82866 9.78442 8.46217C10.3954 8.09568 11.0909 7.8937 11.8032 7.8759C12.5155 7.85811 13.2202 8.0251 13.8487 8.36062L12.7092 9.50015C12.2496 9.353 11.7584 9.33528 11.2895 9.44893C10.8205 9.56258 10.3919 9.80321 10.0507 10.1444C9.70945 10.4856 9.46882 10.9142 9.35517 11.3832C9.24152 11.8522 9.25924 12.3434 9.40639 12.803L8.26686 13.9425C7.94708 13.345 7.78024 12.6777 7.78123 12Z" fill="#78788C"/>
<path d="M22.0828 11.3953C21.2578 9.6578 20.2759 8.24101 19.137 7.14491L15.7587 10.5234C16.0435 11.2678 16.1066 12.0788 15.9404 12.8583C15.7743 13.6378 15.3859 14.3525 14.8224 14.9161C14.2588 15.4797 13.5441 15.868 12.7646 16.0342C11.9851 16.2003 11.1741 16.1372 10.4297 15.8524L7.56424 18.7179C8.89361 19.333 10.3722 19.6406 12 19.6406C16.5047 19.6406 19.8656 17.2945 22.0828 12.6023C22.172 12.4136 22.2182 12.2075 22.2182 11.9988C22.2182 11.7901 22.172 11.584 22.0828 11.3953Z" fill="#78788C"/>
</svg>
