<svg width="118" height="27" viewBox="0 0 118 27" fill="none" xmlns="http://www.w3.org/2000/svg">
<path d="M31.623 21H29.9629V6.72266H37.9219V8.19727H31.623V13.4219H37.541V14.8965H31.623V21ZM46.6328 21L46.3105 19.4766H46.2324C45.6986 20.1471 45.1647 20.6029 44.6309 20.8438C44.1035 21.0781 43.4427 21.1953 42.6484 21.1953C41.5872 21.1953 40.7539 20.9219 40.1484 20.375C39.5495 19.8281 39.25 19.0501 39.25 18.041C39.25 15.8796 40.9785 14.7467 44.4355 14.6426L46.252 14.584V13.9199C46.252 13.0801 46.0697 12.4616 45.7051 12.0645C45.347 11.6608 44.7708 11.459 43.9766 11.459C43.0846 11.459 42.0755 11.7324 40.9492 12.2793L40.4512 11.0391C40.9785 10.7526 41.5547 10.528 42.1797 10.3652C42.8112 10.2025 43.4427 10.1211 44.0742 10.1211C45.3503 10.1211 46.2943 10.4043 46.9062 10.9707C47.5247 11.5371 47.834 12.4453 47.834 13.6953V21H46.6328ZM42.9707 19.8574C43.9798 19.8574 44.7708 19.5807 45.3438 19.0273C45.9232 18.474 46.2129 17.6992 46.2129 16.7031V15.7363L44.5918 15.8047C43.3027 15.8503 42.3717 16.0521 41.7988 16.4102C41.2324 16.7617 40.9492 17.3118 40.9492 18.0605C40.9492 18.6465 41.125 19.0924 41.4766 19.3984C41.8346 19.7044 42.3327 19.8574 42.9707 19.8574ZM55.4609 21.1953C53.9115 21.1953 52.7103 20.7201 51.8574 19.7695C51.0111 18.8125 50.5879 17.4616 50.5879 15.7168C50.5879 13.9264 51.0176 12.543 51.877 11.5664C52.7428 10.5898 53.9733 10.1016 55.5684 10.1016C56.0827 10.1016 56.597 10.1569 57.1113 10.2676C57.6257 10.3783 58.0293 10.5085 58.3223 10.6582L57.8242 12.0352C57.4661 11.8919 57.0755 11.7747 56.6523 11.6836C56.2292 11.5859 55.8548 11.5371 55.5293 11.5371C53.3548 11.5371 52.2676 12.9238 52.2676 15.6973C52.2676 17.0124 52.5312 18.0215 53.0586 18.7246C53.5924 19.4277 54.3802 19.7793 55.4219 19.7793C56.3138 19.7793 57.2285 19.5872 58.166 19.2031V20.6387C57.4499 21.0098 56.5482 21.1953 55.4609 21.1953ZM65.2363 21.1953C63.6543 21.1953 62.4043 20.7135 61.4863 19.75C60.5749 18.7865 60.1191 17.4486 60.1191 15.7363C60.1191 14.0111 60.5423 12.6406 61.3887 11.625C62.2415 10.6094 63.3841 10.1016 64.8164 10.1016C66.1576 10.1016 67.2188 10.5443 68 11.4297C68.7812 12.3086 69.1719 13.4707 69.1719 14.916V15.9414H61.7988C61.8314 17.1979 62.1471 18.1517 62.7461 18.8027C63.3516 19.4538 64.2012 19.7793 65.2949 19.7793C66.4473 19.7793 67.5866 19.5384 68.7129 19.0566V20.502C68.14 20.7493 67.5964 20.9251 67.082 21.0293C66.5742 21.14 65.959 21.1953 65.2363 21.1953ZM64.7969 11.459C63.9375 11.459 63.2507 11.7389 62.7363 12.2988C62.2285 12.8587 61.929 13.6335 61.8379 14.623H67.4336C67.4336 13.6009 67.2057 12.8197 66.75 12.2793C66.2943 11.7324 65.6432 11.459 64.7969 11.459ZM76.9258 10.1211C78.332 10.1211 79.4225 10.6029 80.1973 11.5664C80.9785 12.5234 81.3691 13.8809 81.3691 15.6387C81.3691 17.3965 80.9753 18.7637 80.1875 19.7402C79.4062 20.7103 78.319 21.1953 76.9258 21.1953C76.2292 21.1953 75.5911 21.0684 75.0117 20.8145C74.4388 20.554 73.957 20.1569 73.5664 19.623H73.4492L73.1074 21H71.9453V5.80469H73.5664V9.49609C73.5664 10.3229 73.5404 11.0651 73.4883 11.7227H73.5664C74.3216 10.6549 75.4414 10.1211 76.9258 10.1211ZM76.6914 11.4785C75.5846 11.4785 74.7871 11.7975 74.2988 12.4355C73.8105 13.0671 73.5664 14.1348 73.5664 15.6387C73.5664 17.1426 73.8171 18.2201 74.3184 18.8711C74.8197 19.5156 75.6237 19.8379 76.7305 19.8379C77.7266 19.8379 78.4688 19.4766 78.957 18.7539C79.4453 18.0247 79.6895 16.9798 79.6895 15.6191C79.6895 14.2259 79.4453 13.1875 78.957 12.5039C78.4688 11.8203 77.7135 11.4785 76.6914 11.4785ZM93.4492 15.6387C93.4492 17.3835 93.0098 18.7474 92.1309 19.7305C91.252 20.707 90.0378 21.1953 88.4883 21.1953C87.5312 21.1953 86.6816 20.9707 85.9395 20.5215C85.1973 20.0723 84.6243 19.4277 84.2207 18.5879C83.8171 17.748 83.6152 16.765 83.6152 15.6387C83.6152 13.8939 84.0514 12.5365 84.9238 11.5664C85.7962 10.5898 87.0072 10.1016 88.5566 10.1016C90.054 10.1016 91.2422 10.5996 92.1211 11.5957C93.0065 12.5918 93.4492 13.9395 93.4492 15.6387ZM85.2949 15.6387C85.2949 17.0059 85.5684 18.0475 86.1152 18.7637C86.6621 19.4798 87.4661 19.8379 88.5273 19.8379C89.5885 19.8379 90.3926 19.4831 90.9395 18.7734C91.4928 18.0573 91.7695 17.0124 91.7695 15.6387C91.7695 14.278 91.4928 13.2461 90.9395 12.543C90.3926 11.8333 89.582 11.4785 88.5078 11.4785C87.4466 11.4785 86.6458 11.8268 86.1055 12.5234C85.5651 13.2201 85.2949 14.2585 85.2949 15.6387ZM105.539 15.6387C105.539 17.3835 105.1 18.7474 104.221 19.7305C103.342 20.707 102.128 21.1953 100.578 21.1953C99.6211 21.1953 98.7715 20.9707 98.0293 20.5215C97.2871 20.0723 96.7142 19.4277 96.3105 18.5879C95.9069 17.748 95.7051 16.765 95.7051 15.6387C95.7051 13.8939 96.1413 12.5365 97.0137 11.5664C97.8861 10.5898 99.097 10.1016 100.646 10.1016C102.144 10.1016 103.332 10.5996 104.211 11.5957C105.096 12.5918 105.539 13.9395 105.539 15.6387ZM97.3848 15.6387C97.3848 17.0059 97.6582 18.0475 98.2051 18.7637C98.752 19.4798 99.556 19.8379 100.617 19.8379C101.678 19.8379 102.482 19.4831 103.029 18.7734C103.583 18.0573 103.859 17.0124 103.859 15.6387C103.859 14.278 103.583 13.2461 103.029 12.543C102.482 11.8333 101.672 11.4785 100.598 11.4785C99.5365 11.4785 98.7357 11.8268 98.1953 12.5234C97.6549 13.2201 97.3848 14.2585 97.3848 15.6387ZM109.992 15.5215C110.272 15.1243 110.699 14.6035 111.271 13.959L114.729 10.2969H116.652L112.316 14.8574L116.955 21H114.992L111.213 15.9414L109.992 16.9961V21H108.391V5.80469H109.992V13.8613C109.992 14.2194 109.966 14.7728 109.914 15.5215H109.992Z" fill="white"/>
<path d="M3.3186 26V14.2693H0V10.0456H3.3186V6.43813C3.3186 3.6033 5.27891 1 9.79588 1C11.6247 1 12.9771 1.16387 12.9771 1.16387L12.8705 5.10803C12.8705 5.10803 11.4913 5.09548 9.98632 5.09548C8.35743 5.09548 8.09646 5.7971 8.09646 6.96163V10.0456H13L12.7866 14.2693H8.09646V26H3.3186Z" fill="white"/>
</svg>
