<svg width="105" height="27" viewBox="0 0 105 27" fill="none" xmlns="http://www.w3.org/2000/svg">
<path d="M47.2422 13.5195H52.0957V20.4629C51.3405 20.7038 50.5723 20.8861 49.791 21.0098C49.0098 21.1335 48.1048 21.1953 47.0762 21.1953C44.9147 21.1953 43.2318 20.554 42.0273 19.2715C40.8229 17.9824 40.2207 16.179 40.2207 13.8613C40.2207 12.377 40.5169 11.0781 41.1094 9.96484C41.7083 8.84505 42.5677 7.99219 43.6875 7.40625C44.8073 6.8138 46.1191 6.51758 47.623 6.51758C49.1465 6.51758 50.5658 6.79753 51.8809 7.35742L51.2363 8.82227C49.9473 8.27539 48.707 8.00195 47.5156 8.00195C45.7773 8.00195 44.4199 8.51953 43.4434 9.55469C42.4668 10.5898 41.9785 12.0254 41.9785 13.8613C41.9785 15.7884 42.4473 17.25 43.3848 18.2461C44.3288 19.2422 45.7122 19.7402 47.5352 19.7402C48.5247 19.7402 49.4915 19.6263 50.4355 19.3984V15.0039H47.2422V13.5195ZM64.5273 15.6387C64.5273 17.3835 64.0879 18.7474 63.209 19.7305C62.3301 20.707 61.1159 21.1953 59.5664 21.1953C58.6094 21.1953 57.7598 20.9707 57.0176 20.5215C56.2754 20.0723 55.7025 19.4277 55.2988 18.5879C54.8952 17.748 54.6934 16.765 54.6934 15.6387C54.6934 13.8939 55.1296 12.5365 56.002 11.5664C56.8743 10.5898 58.0853 10.1016 59.6348 10.1016C61.1322 10.1016 62.3203 10.5996 63.1992 11.5957C64.0846 12.5918 64.5273 13.9395 64.5273 15.6387ZM56.373 15.6387C56.373 17.0059 56.6465 18.0475 57.1934 18.7637C57.7402 19.4798 58.5443 19.8379 59.6055 19.8379C60.6667 19.8379 61.4707 19.4831 62.0176 18.7734C62.571 18.0573 62.8477 17.0124 62.8477 15.6387C62.8477 14.278 62.571 13.2461 62.0176 12.543C61.4707 11.8333 60.6602 11.4785 59.5859 11.4785C58.5247 11.4785 57.724 11.8268 57.1836 12.5234C56.6432 13.2201 56.373 14.2585 56.373 15.6387ZM76.6172 15.6387C76.6172 17.3835 76.1777 18.7474 75.2988 19.7305C74.4199 20.707 73.2057 21.1953 71.6562 21.1953C70.6992 21.1953 69.8496 20.9707 69.1074 20.5215C68.3652 20.0723 67.7923 19.4277 67.3887 18.5879C66.985 17.748 66.7832 16.765 66.7832 15.6387C66.7832 13.8939 67.2194 12.5365 68.0918 11.5664C68.9642 10.5898 70.1751 10.1016 71.7246 10.1016C73.222 10.1016 74.4102 10.5996 75.2891 11.5957C76.1745 12.5918 76.6172 13.9395 76.6172 15.6387ZM68.4629 15.6387C68.4629 17.0059 68.7363 18.0475 69.2832 18.7637C69.8301 19.4798 70.6341 19.8379 71.6953 19.8379C72.7565 19.8379 73.5605 19.4831 74.1074 18.7734C74.6608 18.0573 74.9375 17.0124 74.9375 15.6387C74.9375 14.278 74.6608 13.2461 74.1074 12.543C73.5605 11.8333 72.75 11.4785 71.6758 11.4785C70.6146 11.4785 69.8138 11.8268 69.2734 12.5234C68.7331 13.2201 68.4629 14.2585 68.4629 15.6387ZM88.2285 10.2969V11.3223L86.2461 11.5566C86.4284 11.7845 86.5911 12.084 86.7344 12.4551C86.8776 12.8197 86.9492 13.2331 86.9492 13.6953C86.9492 14.7435 86.5911 15.5801 85.875 16.2051C85.1589 16.8301 84.1758 17.1426 82.9258 17.1426C82.6068 17.1426 82.3073 17.1165 82.0273 17.0645C81.3372 17.429 80.9922 17.888 80.9922 18.4414C80.9922 18.7344 81.1126 18.9525 81.3535 19.0957C81.5944 19.2324 82.0078 19.3008 82.5938 19.3008H84.4883C85.6471 19.3008 86.5358 19.5449 87.1543 20.0332C87.7793 20.5215 88.0918 21.2311 88.0918 22.1621C88.0918 23.347 87.6165 24.2487 86.666 24.8672C85.7155 25.4922 84.3288 25.8047 82.5059 25.8047C81.1061 25.8047 80.0254 25.5443 79.2637 25.0234C78.5085 24.5026 78.1309 23.7669 78.1309 22.8164C78.1309 22.1654 78.3392 21.6022 78.7559 21.127C79.1725 20.6517 79.7585 20.3294 80.5137 20.1602C80.2402 20.0365 80.0091 19.8444 79.8203 19.584C79.638 19.3236 79.5469 19.0208 79.5469 18.6758C79.5469 18.2852 79.651 17.9434 79.8594 17.6504C80.0677 17.3574 80.3965 17.0742 80.8457 16.8008C80.2923 16.5729 79.8398 16.1855 79.4883 15.6387C79.1432 15.0918 78.9707 14.4668 78.9707 13.7637C78.9707 12.5918 79.3223 11.6901 80.0254 11.0586C80.7285 10.4206 81.7246 10.1016 83.0137 10.1016C83.5736 10.1016 84.0781 10.1667 84.5273 10.2969H88.2285ZM79.6934 22.7969C79.6934 23.3763 79.9375 23.8158 80.4258 24.1152C80.9141 24.4147 81.6139 24.5645 82.5254 24.5645C83.8861 24.5645 84.8919 24.3594 85.543 23.9492C86.2005 23.5456 86.5293 22.9954 86.5293 22.2988C86.5293 21.7194 86.3503 21.3158 85.9922 21.0879C85.6341 20.8665 84.9603 20.7559 83.9707 20.7559H82.0273C81.2917 20.7559 80.7188 20.9316 80.3086 21.2832C79.8984 21.6348 79.6934 22.1393 79.6934 22.7969ZM80.5723 13.7246C80.5723 14.4733 80.7839 15.0397 81.207 15.4238C81.6302 15.8079 82.2194 16 82.9746 16C84.5566 16 85.3477 15.2318 85.3477 13.6953C85.3477 12.0872 84.5469 11.2832 82.9453 11.2832C82.1836 11.2832 81.5977 11.4883 81.1875 11.8984C80.7773 12.3086 80.5723 12.9173 80.5723 13.7246ZM92.0469 21H90.4258V5.80469H92.0469V21ZM100.006 21.1953C98.4238 21.1953 97.1738 20.7135 96.2559 19.75C95.3444 18.7865 94.8887 17.4486 94.8887 15.7363C94.8887 14.0111 95.3118 12.6406 96.1582 11.625C97.0111 10.6094 98.1536 10.1016 99.5859 10.1016C100.927 10.1016 101.988 10.5443 102.77 11.4297C103.551 12.3086 103.941 13.4707 103.941 14.916V15.9414H96.5684C96.6009 17.1979 96.9167 18.1517 97.5156 18.8027C98.1211 19.4538 98.9707 19.7793 100.064 19.7793C101.217 19.7793 102.356 19.5384 103.482 19.0566V20.502C102.91 20.7493 102.366 20.9251 101.852 21.0293C101.344 21.14 100.729 21.1953 100.006 21.1953ZM99.5664 11.459C98.707 11.459 98.0202 11.7389 97.5059 12.2988C96.998 12.8587 96.6986 13.6335 96.6074 14.623H102.203C102.203 13.6009 101.975 12.8197 101.52 12.2793C101.064 11.7324 100.413 11.459 99.5664 11.459Z" fill="white"/>
<path d="M21.8055 12.0415H21V12H12V16H17.6515C16.827 18.3285 14.6115 20 12 20C8.6865 20 6 17.3135 6 14C6 10.6865 8.6865 8 12 8C13.5295 8 14.921 8.577 15.9805 9.5195L18.809 6.691C17.023 5.0265 14.634 4 12 4C6.4775 4 2 8.4775 2 14C2 19.5225 6.4775 24 12 24C17.5225 24 22 19.5225 22 14C22 13.3295 21.931 12.675 21.8055 12.0415Z" fill="white"/>
<path d="M3.153 9.3455L6.4385 11.755C7.3275 9.554 9.4805 8 12 8C13.5295 8 14.921 8.577 15.9805 9.5195L18.809 6.691C17.023 5.0265 14.634 4 12 4C8.159 4 4.828 6.1685 3.153 9.3455Z" fill="white"/>
<path d="M12 24C14.583 24 16.93 23.0115 18.7045 21.404L15.6095 18.785C14.5718 19.5742 13.3037 20.001 12 20C9.399 20 7.1905 18.3415 6.3585 16.027L3.0975 18.5395C4.7525 21.778 8.1135 24 12 24Z" fill="white"/>
<path d="M21.8055 12.0415H21V12H12V16H17.6515C17.2571 17.1082 16.5467 18.0766 15.608 18.7855L15.6095 18.7845L18.7045 21.4035C18.4855 21.6025 22 19 22 14C22 13.3295 21.931 12.675 21.8055 12.0415Z" fill="white"/>
</svg>
