<svg width="89" height="20" viewBox="0 0 89 20" fill="none" xmlns="http://www.w3.org/2000/svg">
<path d="M10.335 10.8809C10.335 11.722 10.1216 12.4704 9.69482 13.126C9.26807 13.7754 8.65267 14.2826 7.84863 14.6475C7.0446 15.0062 6.1014 15.1855 5.01904 15.1855C4.11605 15.1855 3.3584 15.1237 2.74609 15C2.13379 14.8701 1.49674 14.6475 0.834961 14.332V11.0664C1.53385 11.4251 2.26058 11.7065 3.01514 11.9106C3.76969 12.1086 4.4624 12.2075 5.09326 12.2075C5.63753 12.2075 6.03646 12.1147 6.29004 11.9292C6.54362 11.7375 6.67041 11.4932 6.67041 11.1963C6.67041 11.0107 6.61784 10.8499 6.5127 10.7139C6.41374 10.5716 6.24984 10.4294 6.021 10.2871C5.79834 10.1449 5.1984 9.85417 4.22119 9.41504C3.33675 9.01302 2.67188 8.62337 2.22656 8.24609C1.78743 7.86881 1.45964 7.43587 1.24316 6.94727C1.03288 6.45866 0.927734 5.88037 0.927734 5.2124C0.927734 3.96305 1.38232 2.98893 2.2915 2.29004C3.20068 1.59115 4.45003 1.2417 6.03955 1.2417C7.44352 1.2417 8.87533 1.56641 10.335 2.21582L9.2124 5.04541C7.9445 4.46403 6.84977 4.17334 5.92822 4.17334C5.45199 4.17334 5.10563 4.25684 4.88916 4.42383C4.67269 4.59082 4.56445 4.79801 4.56445 5.04541C4.56445 5.31136 4.70052 5.54948 4.97266 5.75977C5.25098 5.97005 5.99935 6.35352 7.21777 6.91016C8.38672 7.43587 9.19694 8.00179 9.64844 8.60791C10.1061 9.20784 10.335 9.9655 10.335 10.8809Z" fill="black"/>
<path d="M18.833 15V9.2666C18.833 7.85645 18.4155 7.15137 17.5806 7.15137C16.9868 7.15137 16.5477 7.40186 16.2632 7.90283C15.9849 8.39762 15.8457 9.22331 15.8457 10.3799V15H12.2183V0.564453H15.8457V2.61475C15.8457 3.54248 15.7962 4.6001 15.6973 5.7876H15.8643C16.2106 5.24333 16.6219 4.85986 17.0981 4.63721C17.5744 4.41455 18.1279 4.30322 18.7588 4.30322C19.9339 4.30322 20.8462 4.64339 21.4956 5.32373C22.1512 5.99788 22.479 6.94417 22.479 8.1626V15H18.833Z" fill="black"/>
<path d="M34.9849 9.72119C34.9849 11.4406 34.521 12.7827 33.5933 13.7476C32.6717 14.7062 31.3791 15.1855 29.7153 15.1855C28.1196 15.1855 26.8486 14.6938 25.9023 13.7104C24.9622 12.7271 24.4922 11.3973 24.4922 9.72119C24.4922 8.00798 24.953 6.67822 25.8745 5.73193C26.8022 4.77946 28.1011 4.30322 29.771 4.30322C30.8039 4.30322 31.7161 4.52279 32.5078 4.96191C33.2995 5.40104 33.9087 6.0319 34.3354 6.85449C34.7684 7.6709 34.9849 8.62646 34.9849 9.72119ZM28.1753 9.72119C28.1753 10.6242 28.2959 11.3138 28.5371 11.79C28.7783 12.2601 29.1834 12.4951 29.7524 12.4951C30.3153 12.4951 30.7111 12.2601 30.9399 11.79C31.175 11.3138 31.2925 10.6242 31.2925 9.72119C31.2925 8.82438 31.175 8.14714 30.9399 7.68945C30.7049 7.23177 30.3029 7.00293 29.7339 7.00293C29.1772 7.00293 28.7783 7.23177 28.5371 7.68945C28.2959 8.14095 28.1753 8.8182 28.1753 9.72119Z" fill="black"/>
<path d="M43.3716 15.1855C42.8397 15.1855 42.3634 15.099 41.9429 14.9258C41.5223 14.7464 41.1048 14.4279 40.6904 13.9702H40.5234C40.6348 14.7062 40.6904 15.1639 40.6904 15.3433V19.5645H37.063V4.48877H40.0132L40.5234 5.82471H40.6904C41.3646 4.81038 42.2954 4.30322 43.4829 4.30322C44.6457 4.30322 45.5579 4.78564 46.2197 5.75049C46.8815 6.71533 47.2124 8.0389 47.2124 9.72119C47.2124 11.4159 46.866 12.7518 46.1733 13.729C45.4868 14.7 44.5529 15.1855 43.3716 15.1855ZM42.1562 7.15137C41.6243 7.15137 41.2502 7.3431 41.0337 7.72656C40.8234 8.10384 40.709 8.66667 40.6904 9.41504V9.70264C40.6904 10.6056 40.811 11.2581 41.0522 11.6602C41.2935 12.0622 41.6738 12.2632 42.1934 12.2632C42.6572 12.2632 42.9943 12.0653 43.2046 11.6694C43.4149 11.2674 43.52 10.6056 43.52 9.68408C43.52 8.78109 43.4149 8.13477 43.2046 7.74512C42.9943 7.34928 42.6449 7.15137 42.1562 7.15137Z" fill="black"/>
<path d="M54.4395 1.43652H59.1709C61.014 1.43652 62.3809 1.71175 63.2715 2.26221C64.1683 2.80648 64.6167 3.6569 64.6167 4.81348C64.6167 5.57422 64.4219 6.22363 64.0322 6.76172C63.6426 7.2998 63.1292 7.64616 62.4922 7.80078V7.89355C63.3333 8.11621 63.9425 8.4873 64.3198 9.00684C64.6971 9.52637 64.8857 10.2005 64.8857 11.0293C64.8857 12.2601 64.4219 13.2311 63.4941 13.9424C62.5726 14.6475 61.314 15 59.7183 15H54.4395V1.43652ZM58.104 6.64111H59.208C59.7337 6.64111 60.1388 6.53288 60.4233 6.31641C60.714 6.09994 60.8594 5.77832 60.8594 5.35156C60.8594 4.59082 60.2842 4.21045 59.1338 4.21045H58.104V6.64111ZM58.104 9.32227V12.1704H59.3936C60.5378 12.1704 61.1099 11.688 61.1099 10.7231C61.1099 10.2716 60.9552 9.92529 60.646 9.68408C60.3429 9.44287 59.9007 9.32227 59.3193 9.32227H58.104Z" fill="black"/>
<path d="M73.8848 15L73.189 13.6084H73.1147C72.6261 14.2145 72.1283 14.6289 71.6211 14.8516C71.1139 15.0742 70.4583 15.1855 69.6543 15.1855C68.6647 15.1855 67.8854 14.8887 67.3164 14.2949C66.7474 13.7012 66.4629 12.8662 66.4629 11.79C66.4629 10.6706 66.8525 9.8387 67.6318 9.29443C68.4111 8.74398 69.5399 8.43473 71.0181 8.3667L72.7715 8.31104V8.1626C72.7715 7.29671 72.3447 6.86377 71.4912 6.86377C70.7243 6.86377 69.7502 7.12354 68.5688 7.64307L67.5205 5.24951C68.7451 4.61865 70.2913 4.30322 72.1592 4.30322C73.5075 4.30322 74.5496 4.63721 75.2856 5.30518C76.0278 5.97314 76.3989 6.90706 76.3989 8.10693V15H73.8848ZM71.1943 12.625C71.6335 12.625 72.0077 12.4858 72.3169 12.2075C72.6323 11.9292 72.79 11.5674 72.79 11.1221V10.3057L71.9551 10.3428C70.7614 10.3861 70.1646 10.8252 70.1646 11.6602C70.1646 12.3034 70.5078 12.625 71.1943 12.625Z" fill="black"/>
<path d="M88.7842 4.48877V6.24219L87.3462 6.771C87.5441 7.12972 87.6431 7.5472 87.6431 8.02344C87.6431 9.15527 87.2441 10.0335 86.4463 10.6582C85.6546 11.2829 84.4702 11.5952 82.8931 11.5952C82.5034 11.5952 82.1942 11.5705 81.9653 11.521C81.8787 11.6818 81.8354 11.8333 81.8354 11.9756C81.8354 12.1549 81.9808 12.2941 82.2715 12.3931C82.5622 12.4858 82.9425 12.5322 83.4126 12.5322H85.1567C87.5132 12.5322 88.6914 13.5249 88.6914 15.5103C88.6914 16.7905 88.144 17.7863 87.0493 18.4976C85.9608 19.2088 84.43 19.5645 82.457 19.5645C80.9665 19.5645 79.8161 19.314 79.0059 18.813C78.2018 18.3182 77.7998 17.6038 77.7998 16.6699C77.7998 15.4144 78.5791 14.6042 80.1377 14.2393C79.8161 14.1032 79.5347 13.8836 79.2935 13.5806C79.0584 13.2775 78.9409 12.9775 78.9409 12.6807C78.9409 12.3529 79.0306 12.0653 79.21 11.8179C79.3893 11.5643 79.7635 11.2643 80.3325 10.918C79.7882 10.6768 79.3584 10.2995 79.043 9.78613C78.7337 9.27279 78.5791 8.64811 78.5791 7.91211C78.5791 6.7679 78.9688 5.88037 79.748 5.24951C80.5273 4.61865 81.6406 4.30322 83.0879 4.30322C83.2796 4.30322 83.6105 4.32487 84.0806 4.36816C84.5506 4.41146 84.897 4.45166 85.1196 4.48877H88.7842ZM80.8613 16.3081C80.8613 16.605 81.0221 16.8431 81.3438 17.0225C81.6654 17.208 82.0952 17.3008 82.6333 17.3008C83.5116 17.3008 84.2135 17.1895 84.7393 16.9668C85.2712 16.7503 85.5371 16.4689 85.5371 16.1226C85.5371 15.8442 85.3763 15.6463 85.0547 15.5288C84.7331 15.4175 84.2723 15.3618 83.6724 15.3618H82.2529C81.8633 15.3618 81.5324 15.4515 81.2603 15.6309C80.9943 15.8164 80.8613 16.0422 80.8613 16.3081ZM82.0024 7.93066C82.0024 9.00684 82.3766 9.54492 83.125 9.54492C83.4714 9.54492 83.7373 9.41195 83.9229 9.146C84.1146 8.88005 84.2104 8.48112 84.2104 7.94922C84.2104 6.86068 83.8486 6.31641 83.125 6.31641C82.3766 6.31641 82.0024 6.85449 82.0024 7.93066Z" fill="black"/>
</svg>
